# xmcd
#
# Track frame offsets:
#	150
#	19442
#	39351
#	64266
#	78615
#	113700
#	123717
#	140017
#	156637
#	173413
#	192529
#	210346
#	226276
#	243772
#	265682
#	285707
#	304970
#	319884
#	338637
#
# Disc length: 4744 seconds
#
# Revision: 0
# Processed by: cddbd v1.5.2PL0 Copyright (c) Steve Scherf et al.
# Submitted via: EasyCDDAExtractor 12.0.4.1
#
DISCID=17128613
DTITLE=Various Artist - Bajen P96 [CD.2)
DYEAR=2010
DGENRE=Alternative
TTITLE0=ACDC - Back In Black
TTITLE1=Bonfire - The Stroke
TTITLE2=Metallica - Enter Sandman
TTITLE3=Linkin Park - Pushing Me Away
TTITLE4=The Heavy's - Hardwear Mix
TTITLE5=Jimi Hendrix - Crosstown Traffic
TTITLE6=Krokus - Hoodoo Woman
TTITLE7=Lynyrd Skynyrd - Gimme Back My Bullets (Remake Feat. Kid Rock)
TTITLE8=Kill Hannah - Lips Like Morphine
TTITLE9=Wig Wam - C'mon Everybody
TTITLE10=Accept - London Leatherboys
TTITLE11=Cinderella - Nothin' For Nothin'
TTITLE12=Manowar - Fighting The World
TTITLE13=Disturbed - Land Of Confusion
TTITLE14=Kiss - Say Yeah
TTITLE15=Korn - Alone I Break
TTITLE16=Skid Row - Youth Gone Wild
TTITLE17=Turbonegro - Back In Denim
TTITLE18=ZZ Top - Concrete And Steel
EXTD=
EXTT0=
EXTT1=
EXTT2=
EXTT3=
EXTT4=
EXTT5=
EXTT6=
EXTT7=
EXTT8=
EXTT9=
EXTT10=
EXTT11=
EXTT12=
EXTT13=
EXTT14=
EXTT15=
EXTT16=
EXTT17=
EXTT18=
PLAYORDER=
